<svg width="1100" height="138" viewBox="0 0 1100 138" fill="none" xmlns="http://www.w3.org/2000/svg">
<path d="M21.0439 60.8486H29.0569C28.9615 64.9028 28.6515 68.17 28.1268 70.6502C27.6498 73.1304 26.7674 75.4198 25.4796 77.5185C24.1918 79.6171 22.3317 82.1212 19.8992 85.0307C17.9436 87.4632 16.0834 89.848 14.3187 92.1851C12.5539 94.5223 11.1469 97.1456 10.0975 100.055C9.04822 102.917 8.52356 106.423 8.52356 110.572C8.52356 114.626 9.09592 118.06 10.2406 120.875C11.433 123.736 13.174 125.907 15.4634 127.385C17.7528 128.911 20.5192 129.675 23.7626 129.675C26.7197 129.675 29.3431 128.935 31.6325 127.457C33.9219 126.026 35.7344 123.927 37.0699 121.161C38.4054 118.442 39.097 115.223 39.1447 111.502H47.0861C47.0384 117.083 45.9653 121.781 43.8666 125.596C41.8157 129.412 39.0254 132.322 35.4959 134.325C32.0141 136.376 28.1029 137.401 23.7626 137.401C18.8498 137.401 14.6526 136.304 11.1707 134.11C7.68887 131.964 5.04172 128.888 3.22926 124.881C1.41679 120.875 0.510562 116.129 0.510562 110.644C0.510562 106.112 1.20216 102.011 2.58536 98.338C3.96855 94.6177 5.78102 91.1597 8.02275 87.964C10.3122 84.7683 12.7685 81.6681 15.3918 78.6632C17.0612 76.8984 18.2775 75.1337 19.0406 73.3689C19.8515 71.6041 20.3761 69.7201 20.6146 67.7169C20.9008 65.6659 21.0439 63.3765 21.0439 60.8486ZM29.8439 37.0242C29.8439 38.5982 29.3907 39.9576 28.4845 41.1023C27.5783 42.247 26.2905 42.8193 24.6211 42.8193C22.9994 42.8193 21.7116 42.247 20.7577 41.1023C19.8038 39.9576 19.3268 38.5982 19.3268 37.0242C19.3268 35.4025 19.8038 34.0432 20.7577 32.9462C21.7116 31.8015 22.9994 31.2291 24.6211 31.2291C26.2905 31.2291 27.5783 31.8015 28.4845 32.9462C29.3907 34.0432 29.8439 35.4025 29.8439 37.0242ZM84.2235 110H64.6918L64.7634 102.344H84.2235C90.4717 102.344 95.7899 101.033 100.178 98.4095C104.566 95.7862 107.905 91.9467 110.194 86.8908C112.531 81.835 113.7 75.6583 113.7 68.3608V47.2551C113.7 41.7223 113.032 36.8573 111.697 32.66C110.409 28.415 108.501 24.8855 105.973 22.0714C103.493 19.2096 100.464 17.0633 96.8869 15.6324C93.3097 14.2015 89.2793 13.486 84.7959 13.486H64.2626V5.83076H84.7959C90.3287 5.83076 95.3368 6.73699 99.8202 8.54946C104.351 10.3619 108.263 13.0329 111.554 16.5625C114.845 20.092 117.373 24.4562 119.137 29.6551C120.902 34.8063 121.784 40.7207 121.784 47.3982V68.3608C121.784 75.086 120.902 81.048 119.137 86.2469C117.373 91.3981 114.845 95.7385 111.554 99.2681C108.263 102.798 104.304 105.469 99.6772 107.281C95.0983 109.094 89.9471 110 84.2235 110ZM68.5552 5.83076V110H60.3276V5.83076H68.5552ZM133.309 75.3006V67.2876C133.309 61.4209 133.977 56.2459 135.312 51.7624C136.695 47.279 138.627 43.5109 141.107 40.4584C143.635 37.3581 146.64 35.0448 150.122 33.5185C153.604 31.9446 157.419 31.1576 161.569 31.1576C165.814 31.1576 169.654 31.9446 173.088 33.5185C176.57 35.0448 179.551 37.3581 182.031 40.4584C184.559 43.5109 186.514 47.279 187.897 51.7624C189.281 56.2459 189.972 61.4209 189.972 67.2876V75.3006C189.972 81.1673 189.281 86.3662 187.897 90.8973C186.514 95.3808 184.559 99.1488 182.031 102.201C179.551 105.254 176.57 107.567 173.088 109.141C169.654 110.715 165.838 111.502 161.641 111.502C157.443 111.502 153.604 110.715 150.122 109.141C146.688 107.567 143.707 105.254 141.179 102.201C138.651 99.1011 136.695 95.3093 135.312 90.8258C133.977 86.3423 133.309 81.1673 133.309 75.3006ZM141.322 67.2876V75.3006C141.322 79.7364 141.751 83.719 142.61 87.2486C143.516 90.7781 144.851 93.783 146.616 96.2632C148.381 98.7434 150.503 100.651 152.984 101.987C155.512 103.322 158.397 103.99 161.641 103.99C165.075 103.99 168.056 103.322 170.584 101.987C173.159 100.651 175.282 98.7434 176.951 96.2632C178.668 93.783 179.932 90.7781 180.743 87.2486C181.601 83.719 182.031 79.7364 182.031 75.3006V67.2876C182.031 62.9472 181.578 59.0123 180.671 55.4827C179.765 51.9532 178.406 48.9483 176.593 46.4681C174.829 43.9402 172.682 42.0085 170.154 40.673C167.626 39.2898 164.765 38.5982 161.569 38.5982C158.421 38.5982 155.583 39.2898 153.055 40.673C150.527 42.0085 148.381 43.9402 146.616 46.4681C144.899 48.9483 143.587 51.9532 142.681 55.4827C141.775 59.0123 141.322 62.9472 141.322 67.2876ZM156.418 20.2828L170.083 0.250278H180.457L163.858 20.2828H156.418ZM210.368 49.1153V110H202.427V32.5885H210.01L210.368 49.1153ZM208.58 66.5006L205.074 64.4258C205.265 59.847 206.004 55.5543 207.292 51.5478C208.627 47.5413 210.44 44.0117 212.729 40.9592C215.019 37.8589 217.713 35.4502 220.814 33.7332C223.914 32.0161 227.348 31.1576 231.116 31.1576C234.312 31.1576 237.197 31.6822 239.773 32.7315C242.349 33.7809 244.519 35.4264 246.284 37.6681C248.096 39.9099 249.479 42.8432 250.433 46.4681C251.387 50.093 251.864 54.4573 251.864 59.5608V110H243.923V59.4892C243.923 54.1949 243.326 50.0453 242.134 47.0405C240.942 44.0356 239.225 41.9131 236.983 40.673C234.789 39.3852 232.142 38.7413 229.041 38.7413C225.75 38.7413 222.841 39.6237 220.313 41.3884C217.833 43.1532 215.71 45.4426 213.945 48.2567C212.228 51.0708 210.917 54.0995 210.01 57.3429C209.104 60.5386 208.627 63.5911 208.58 66.5006ZM309.32 94.9754V0.107189H317.262V110H309.821L309.32 94.9754ZM264.39 74.9429V67.7169C264.39 61.2302 264.962 55.6735 266.107 51.047C267.3 46.3727 268.993 42.5809 271.187 39.6714C273.381 36.7619 276.028 34.6156 279.128 33.2324C282.276 31.8492 285.782 31.1576 289.645 31.1576C293.413 31.1576 296.704 31.873 299.519 33.3039C302.38 34.6871 304.813 36.6665 306.816 39.2421C308.819 41.8177 310.441 44.8941 311.681 48.4714C312.921 52.0009 313.827 55.9597 314.4 60.3478V83.4567C313.923 87.5586 313.064 91.3266 311.824 94.7607C310.632 98.1949 309.01 101.152 306.959 103.632C304.956 106.112 302.5 108.044 299.59 109.427C296.681 110.811 293.294 111.502 289.431 111.502C285.615 111.502 282.157 110.763 279.057 109.284C276.004 107.806 273.381 105.564 271.187 102.559C268.993 99.5542 267.3 95.7624 266.107 91.1835C264.962 86.6047 264.39 81.1911 264.39 74.9429ZM272.403 67.7169V74.9429C272.403 79.9033 272.761 84.196 273.476 87.8209C274.239 91.4458 275.384 94.4507 276.91 96.8355C278.484 99.1727 280.44 100.937 282.777 102.13C285.114 103.275 287.881 103.847 291.076 103.847C295.13 103.847 298.517 103.012 301.236 101.343C303.954 99.6258 306.124 97.3841 307.746 94.6177C309.416 91.8036 310.632 88.7271 311.395 85.3884V58.9169C310.918 56.6275 310.203 54.3142 309.249 51.9771C308.342 49.5922 307.126 47.3982 305.6 45.3949C304.074 43.3917 302.118 41.7939 299.733 40.6015C297.396 39.3613 294.558 38.7413 291.219 38.7413C287.976 38.7413 285.162 39.3375 282.777 40.5299C280.392 41.6746 278.437 43.4394 276.91 45.8242C275.384 48.209 274.239 51.2139 273.476 54.8388C272.761 58.4161 272.403 62.7087 272.403 67.7169ZM358.477 111.502C354.184 111.502 350.226 110.811 346.601 109.427C343.023 107.997 339.923 105.85 337.3 102.988C334.724 100.079 332.721 96.4301 331.29 92.0421C329.859 87.6063 329.144 82.3835 329.144 76.3738V67.4307C329.144 61.0394 329.907 55.5543 331.433 50.9754C332.959 46.3489 335.01 42.5809 337.586 39.6714C340.209 36.7142 343.19 34.5679 346.529 33.2324C349.868 31.8492 353.397 31.1576 357.118 31.1576C361.363 31.1576 365.083 31.8492 368.279 33.2324C371.522 34.6156 374.241 36.7142 376.435 39.5283C378.629 42.3424 380.274 45.8958 381.371 50.1884C382.468 54.4334 383.017 59.4654 383.017 65.2844V71.938H333.937V64.4974H375.075V62.4941C374.98 57.4383 374.265 53.1456 372.929 49.6161C371.641 46.0388 369.686 43.3202 367.062 41.46C364.487 39.5521 361.196 38.5982 357.189 38.5982C354.232 38.5982 351.513 39.1467 349.033 40.2437C346.553 41.2931 344.407 42.9624 342.594 45.2519C340.829 47.5413 339.47 50.5223 338.516 54.1949C337.61 57.8676 337.157 62.2795 337.157 67.4307V76.3738C337.157 81.0957 337.658 85.1976 338.659 88.6795C339.708 92.1136 341.187 94.9754 343.095 97.2648C345.003 99.5065 347.292 101.2 349.963 102.344C352.634 103.441 355.591 103.99 358.835 103.99C362.841 103.99 366.347 103.322 369.352 101.987C372.357 100.604 375.028 98.5288 377.365 95.7624L381.586 101.057C380.155 102.917 378.39 104.658 376.292 106.279C374.193 107.853 371.689 109.117 368.779 110.071C365.87 111.025 362.436 111.502 358.477 111.502ZM446.488 32.5885V39.7429H413.435V32.5885H446.488ZM425.311 12.7706H433.324V91.112C433.324 94.6892 433.706 97.3841 434.469 99.1965C435.232 101.009 436.234 102.225 437.474 102.845C438.714 103.418 440.049 103.704 441.48 103.704C442.577 103.704 443.603 103.632 444.557 103.489C445.558 103.346 446.441 103.155 447.204 102.917L447.49 110.214C446.584 110.596 445.415 110.882 443.984 111.073C442.601 111.311 441.123 111.431 439.549 111.431C436.878 111.431 434.469 110.811 432.323 109.57C430.176 108.283 428.459 106.16 427.171 103.203C425.931 100.246 425.311 96.1916 425.311 91.0404V12.7706ZM483.697 111.502C479.405 111.502 475.446 110.811 471.821 109.427C468.244 107.997 465.143 105.85 462.52 102.988C459.944 100.079 457.941 96.4301 456.51 92.0421C455.079 87.6063 454.364 82.3835 454.364 76.3738V67.4307C454.364 61.0394 455.127 55.5543 456.653 50.9754C458.18 46.3489 460.231 42.5809 462.806 39.6714C465.43 36.7142 468.411 34.5679 471.749 33.2324C475.088 31.8492 478.618 31.1576 482.338 31.1576C486.583 31.1576 490.303 31.8492 493.499 33.2324C496.742 34.6156 499.461 36.7142 501.655 39.5283C503.849 42.3424 505.495 45.8958 506.592 50.1884C507.689 54.4334 508.237 59.4654 508.237 65.2844V71.938H459.158V64.4974H500.296V62.4941C500.2 57.4383 499.485 53.1456 498.149 49.6161C496.862 46.0388 494.906 43.3202 492.283 41.46C489.707 39.5521 486.416 38.5982 482.41 38.5982C479.452 38.5982 476.734 39.1467 474.253 40.2437C471.773 41.2931 469.627 42.9624 467.814 45.2519C466.05 47.5413 464.69 50.5223 463.736 54.1949C462.83 57.8676 462.377 62.2795 462.377 67.4307V76.3738C462.377 81.0957 462.878 85.1976 463.879 88.6795C464.929 92.1136 466.407 94.9754 468.315 97.2648C470.223 99.5065 472.513 101.2 475.184 102.344C477.855 103.441 480.812 103.99 484.055 103.99C488.062 103.99 491.567 103.322 494.572 101.987C497.577 100.604 500.248 98.5288 502.585 95.7624L506.806 101.057C505.375 102.917 503.611 104.658 501.512 106.279C499.413 107.853 496.909 109.117 494 110.071C491.09 111.025 487.656 111.502 483.697 111.502ZM587.949 92.1136V32.5885H595.891V110H588.164L587.949 92.1136ZM589.38 77.6616L593.244 77.5185C593.244 82.3835 592.743 86.8908 591.741 91.0404C590.787 95.1423 589.285 98.7196 587.234 101.772C585.231 104.825 582.607 107.21 579.364 108.927C576.168 110.596 572.281 111.431 567.702 111.431C564.506 111.431 561.573 110.882 558.902 109.785C556.279 108.688 554.037 106.995 552.177 104.705C550.317 102.368 548.862 99.3635 547.813 95.6908C546.811 91.9705 546.31 87.4632 546.31 82.1689V32.5885H554.252V82.312C554.252 86.3662 554.633 89.8003 555.396 92.6144C556.16 95.3808 557.209 97.5748 558.544 99.1965C559.928 100.818 561.478 101.987 563.195 102.702C564.912 103.418 566.748 103.775 568.704 103.775C573.903 103.775 577.981 102.559 580.938 100.127C583.943 97.6941 586.089 94.4984 587.377 90.5396C588.712 86.5808 589.38 82.2881 589.38 77.6616ZM611.207 0.107189H619.22V94.9754L618.648 110H611.207V0.107189ZM664.15 67.7169V74.9429C664.15 81.1911 663.602 86.6047 662.505 91.1835C661.408 95.7624 659.786 99.5542 657.639 102.559C655.493 105.564 652.87 107.806 649.77 109.284C646.717 110.763 643.211 111.502 639.253 111.502C635.389 111.502 632.003 110.811 629.093 109.427C626.184 108.044 623.703 106.112 621.653 103.632C619.649 101.152 618.028 98.1949 616.787 94.7607C615.595 91.3266 614.76 87.5586 614.283 83.4567V60.3478C614.856 55.9597 615.762 51.9771 617.002 48.3998C618.242 44.8226 619.888 41.7462 621.939 39.1706C623.99 36.595 626.422 34.6156 629.236 33.2324C632.05 31.8492 635.341 31.1576 639.109 31.1576C643.116 31.1576 646.669 31.8492 649.77 33.2324C652.87 34.6156 655.493 36.7619 657.639 39.6714C659.786 42.5809 661.408 46.3727 662.505 51.047C663.602 55.6735 664.15 61.2302 664.15 67.7169ZM656.137 74.9429V67.7169C656.137 62.8041 655.779 58.5353 655.064 54.9104C654.396 51.2378 653.299 48.209 651.773 45.8242C650.294 43.4394 648.363 41.6746 645.978 40.5299C643.641 39.3375 640.803 38.7413 637.464 38.7413C634.173 38.7413 631.335 39.3613 628.95 40.6015C626.613 41.7939 624.657 43.3917 623.083 45.3949C621.557 47.3982 620.341 49.5922 619.435 51.9771C618.528 54.3142 617.861 56.6036 617.431 58.8453V85.3884C618.099 88.5364 619.244 91.5412 620.866 94.403C622.487 97.2171 624.681 99.5065 627.448 101.271C630.214 102.988 633.6 103.847 637.607 103.847C640.85 103.847 643.617 103.275 645.906 102.13C648.243 100.937 650.175 99.1488 651.701 96.764C653.228 94.3792 654.348 91.3981 655.064 87.8209C655.779 84.196 656.137 79.9033 656.137 74.9429ZM685.476 32.5885V110H677.535V32.5885H685.476ZM676.318 10.3381C676.318 8.621 676.771 7.21396 677.678 6.11694C678.632 4.97222 679.943 4.39987 681.613 4.39987C683.234 4.39987 684.498 4.97222 685.405 6.11694C686.358 7.21396 686.835 8.621 686.835 10.3381C686.835 11.9121 686.358 13.2476 685.405 14.3446C684.498 15.4416 683.234 15.9901 681.613 15.9901C679.943 15.9901 678.632 15.4416 677.678 14.3446C676.771 13.2476 676.318 11.9121 676.318 10.3381ZM726.262 103.99C729.219 103.99 731.986 103.441 734.561 102.344C737.185 101.247 739.331 99.3873 741 96.764C742.67 94.1407 743.624 90.5396 743.862 85.9608H751.446C751.255 91.4935 749.991 96.1678 747.654 99.9835C745.317 103.752 742.288 106.613 738.568 108.569C734.848 110.524 730.746 111.502 726.262 111.502C721.636 111.502 717.582 110.739 714.1 109.213C710.618 107.686 707.708 105.421 705.371 102.416C703.034 99.3635 701.269 95.6193 700.077 91.1835C698.885 86.7001 698.288 81.525 698.288 75.6583V66.8583C698.288 61.0394 698.885 55.912 700.077 51.4762C701.269 46.9928 703.034 43.2486 705.371 40.2437C707.708 37.2389 710.618 34.9733 714.1 33.447C717.582 31.9207 721.636 31.1576 726.262 31.1576C730.984 31.1576 735.205 32.1592 738.926 34.1624C742.646 36.118 745.603 39.1229 747.797 43.1771C750.039 47.2313 751.255 52.4063 751.446 58.7022H743.862C743.671 53.8849 742.765 50.0215 741.144 47.112C739.57 44.1548 737.495 42.0085 734.919 40.673C732.344 39.2898 729.458 38.5982 726.262 38.5982C722.59 38.5982 719.466 39.2421 716.89 40.5299C714.362 41.77 712.311 43.6063 710.737 46.0388C709.163 48.4714 708.018 51.4285 707.303 54.9104C706.587 58.3922 706.23 62.3749 706.23 66.8583V75.6583C706.23 80.1895 706.587 84.2198 707.303 87.7494C708.018 91.2789 709.163 94.2599 710.737 96.6925C712.359 99.0773 714.434 100.89 716.961 102.13C719.537 103.37 722.637 103.99 726.262 103.99ZM801.891 96.1201V53.9803C801.891 50.3554 801.271 47.422 800.03 45.1803C798.79 42.8909 796.978 41.2215 794.593 40.1722C792.208 39.1229 789.275 38.5982 785.793 38.5982C782.502 38.5982 779.569 39.266 776.993 40.6015C774.465 41.8893 772.486 43.7017 771.055 46.0388C769.672 48.3283 768.98 50.9754 768.98 53.9803L761.039 53.9088C761.039 50.9516 761.635 48.1136 762.827 45.3949C764.02 42.6286 765.713 40.196 767.907 38.0974C770.101 35.9511 772.724 34.2578 775.777 33.0177C778.877 31.7776 782.311 31.1576 786.079 31.1576C790.706 31.1576 794.808 31.8969 798.385 33.3754C801.962 34.854 804.752 37.2866 806.756 40.673C808.807 44.0594 809.832 48.5429 809.832 54.1234V93.6876C809.832 96.4063 809.999 99.1965 810.333 102.058C810.714 104.92 811.215 107.257 811.835 109.07V110H803.393C802.868 108.33 802.487 106.208 802.248 103.632C802.01 101.009 801.891 98.5049 801.891 96.1201ZM803.536 64.7835L803.751 71.5803H790.014C786.294 71.5803 783.027 71.9857 780.213 72.7965C777.399 73.6074 775.038 74.7759 773.13 76.3022C771.27 77.8285 769.862 79.641 768.909 81.7396C767.955 83.8383 767.478 86.2231 767.478 88.8941C767.478 92.3282 768.026 95.1423 769.123 97.3364C770.22 99.4827 771.818 101.081 773.917 102.13C776.063 103.131 778.615 103.632 781.572 103.632C785.483 103.632 788.917 102.869 791.874 101.343C794.879 99.7689 797.336 97.6941 799.243 95.1185C801.151 92.4952 802.391 89.7288 802.964 86.8193L805.11 91.6843C804.633 93.8784 803.751 96.1201 802.463 98.4095C801.175 100.699 799.506 102.845 797.455 104.849C795.404 106.804 792.971 108.402 790.157 109.642C787.343 110.882 784.171 111.502 780.642 111.502C776.397 111.502 772.677 110.691 769.481 109.07C766.333 107.448 763.877 104.992 762.112 101.701C760.395 98.4095 759.536 94.3553 759.536 89.538C759.536 85.9608 760.132 82.6697 761.325 79.6648C762.565 76.66 764.401 74.0605 766.834 71.8665C769.266 69.6247 772.319 67.8838 775.991 66.6437C779.664 65.4036 783.933 64.7835 788.798 64.7835H803.536ZM833.448 48.4714V110H825.435V32.5885H833.09L833.448 48.4714ZM831.945 66.5006L828.153 64.4258C828.344 59.847 829.036 55.5543 830.228 51.5478C831.468 47.5413 833.161 44.0117 835.308 40.9592C837.502 37.8589 840.173 35.4502 843.321 33.7332C846.469 32.0161 850.046 31.1576 854.052 31.1576C857.2 31.1576 860.038 31.6822 862.566 32.7315C865.142 33.7332 867.36 35.331 869.22 37.525C871.08 39.6714 872.511 42.4855 873.513 45.9673C874.514 49.4014 875.015 53.5749 875.015 58.4876V110H867.074V58.7738C867.074 53.6703 866.406 49.6638 865.07 46.7543C863.782 43.8448 861.97 41.7939 859.633 40.6015C857.343 39.3613 854.649 38.7413 851.548 38.7413C847.971 38.7413 844.942 39.6237 842.462 41.3884C839.982 43.1532 837.979 45.4426 836.452 48.2567C834.974 51.0708 833.877 54.0995 833.161 57.3429C832.446 60.5386 832.041 63.5911 831.945 66.5006ZM874.943 59.7754L869.578 60.0616C869.768 56.2936 870.484 52.6925 871.724 49.2584C872.964 45.7765 874.681 42.7001 876.875 40.0291C879.069 37.3104 881.693 35.1641 884.745 33.5901C887.845 31.9684 891.351 31.1576 895.262 31.1576C898.649 31.1576 901.677 31.7061 904.348 32.8031C907.019 33.8524 909.261 35.5218 911.074 37.8112C912.934 40.1006 914.341 43.034 915.295 46.6112C916.249 50.1884 916.726 54.4811 916.726 59.4892V110H908.713V59.4177C908.713 54.028 908.045 49.8307 906.709 46.8258C905.421 43.821 903.609 41.7223 901.272 40.5299C898.982 39.2898 896.311 38.6936 893.259 38.7413C890.254 38.7413 887.607 39.409 885.317 40.7445C883.076 42.08 881.192 43.7971 879.665 45.8958C878.187 47.9467 877.042 50.2123 876.231 52.6925C875.468 55.125 875.039 57.486 874.943 59.7754ZM928.679 75.3006V67.2876C928.679 61.4209 929.347 56.2459 930.682 51.7624C932.066 47.279 933.997 43.5109 936.478 40.4584C939.005 37.3581 942.01 35.0448 945.492 33.5185C948.974 31.9446 952.79 31.1576 956.939 31.1576C961.184 31.1576 965.024 31.9446 968.458 33.5185C971.94 35.0448 974.921 37.3581 977.401 40.4584C979.929 43.5109 981.885 47.279 983.268 51.7624C984.651 56.2459 985.343 61.4209 985.343 67.2876V75.3006C985.343 81.1673 984.651 86.3662 983.268 90.8973C981.885 95.3808 979.929 99.1488 977.401 102.201C974.921 105.254 971.94 107.567 968.458 109.141C965.024 110.715 961.208 111.502 957.011 111.502C952.814 111.502 948.974 110.715 945.492 109.141C942.058 107.567 939.077 105.254 936.549 102.201C934.021 99.1011 932.066 95.3093 930.682 90.8258C929.347 86.3423 928.679 81.1673 928.679 75.3006ZM936.692 67.2876V75.3006C936.692 79.7364 937.121 83.719 937.98 87.2486C938.886 90.7781 940.222 93.783 941.987 96.2632C943.751 98.7434 945.874 100.651 948.354 101.987C950.882 103.322 953.768 103.99 957.011 103.99C960.445 103.99 963.426 103.322 965.954 101.987C968.53 100.651 970.652 98.7434 972.321 96.2632C974.039 93.783 975.302 90.7781 976.113 87.2486C976.972 83.719 977.401 79.7364 977.401 75.3006V67.2876C977.401 62.9472 976.948 59.0123 976.042 55.4827C975.136 51.9532 973.776 48.9483 971.964 46.4681C970.199 43.9402 968.053 42.0085 965.525 40.673C962.997 39.2898 960.135 38.5982 956.939 38.5982C953.791 38.5982 950.953 39.2898 948.426 40.673C945.898 42.0085 943.751 43.9402 941.987 46.4681C940.269 48.9483 938.958 51.9532 938.052 55.4827C937.145 59.0123 936.692 62.9472 936.692 67.2876ZM1036.57 90.9689C1036.57 88.8225 1036 86.867 1034.86 85.1022C1033.76 83.3375 1031.92 81.5965 1029.35 79.8795C1026.82 78.1624 1023.36 76.3022 1018.97 74.299C1015.49 72.725 1012.37 71.1987 1009.6 69.7201C1006.84 68.2415 1004.5 66.6676 1002.59 64.9982C1000.73 63.3288 999.276 61.4448 998.226 59.3462C997.225 57.1998 996.724 54.6719 996.724 51.7624C996.724 48.8529 997.272 46.1581 998.369 43.6779C999.466 41.1977 1001.02 39.0275 1003.02 37.1673C1005.07 35.2595 1007.5 33.7809 1010.32 32.7315C1013.18 31.6822 1016.37 31.1576 1019.9 31.1576C1024.96 31.1576 1029.28 32.1353 1032.85 34.0909C1036.43 35.9988 1039.2 38.6459 1041.15 42.0323C1043.11 45.4188 1044.09 49.3299 1044.09 53.7657H1036.07C1036.07 51.0947 1035.43 48.6145 1034.14 46.325C1032.9 44.0356 1031.09 42.1754 1028.7 40.7445C1026.32 39.3137 1023.39 38.5982 1019.9 38.5982C1016.33 38.5982 1013.39 39.2421 1011.1 40.5299C1008.86 41.77 1007.22 43.3678 1006.17 45.3234C1005.17 47.279 1004.67 49.3299 1004.67 51.4762C1004.67 53.0502 1004.9 54.4573 1005.38 55.6974C1005.91 56.8898 1006.76 58.0583 1007.96 59.2031C1009.2 60.3001 1010.91 61.4686 1013.11 62.7087C1015.35 63.9012 1018.12 65.3321 1021.41 67.0014C1026.18 69.0524 1030.28 71.1033 1033.71 73.1543C1037.15 75.1575 1039.79 77.5185 1041.65 80.2372C1043.51 82.9082 1044.44 86.2946 1044.44 90.3965C1044.44 93.5922 1043.87 96.5017 1042.73 99.125C1041.58 101.701 1039.96 103.918 1037.86 105.779C1035.76 107.591 1033.21 108.998 1030.21 110C1027.25 110.954 1023.96 111.431 1020.33 111.431C1014.8 111.431 1010.1 110.381 1006.24 108.283C1002.42 106.184 999.514 103.418 997.511 99.9835C995.555 96.5494 994.578 92.829 994.578 88.8225H1002.52C1002.71 92.8767 1003.71 96.0009 1005.52 98.1949C1007.38 100.389 1009.65 101.891 1012.32 102.702C1014.99 103.513 1017.66 103.918 1020.33 103.918C1023.82 103.918 1026.77 103.346 1029.21 102.201C1031.64 101.057 1033.47 99.5065 1034.71 97.551C1035.95 95.5477 1036.57 93.3537 1036.57 90.9689ZM1078.65 81.0242H1070.64C1070.64 76.9223 1070.97 73.4881 1071.64 70.7217C1072.3 67.9077 1073.35 65.3082 1074.78 62.9234C1076.22 60.4909 1078.17 57.8437 1080.65 54.9819C1082.75 52.4063 1084.61 50.0453 1086.23 47.899C1087.85 45.7527 1089.14 43.3917 1090.1 40.8161C1091.05 38.1928 1091.53 34.9971 1091.53 31.2291C1091.53 27.4134 1090.95 24.0746 1089.81 21.2129C1088.71 18.3511 1087.07 16.1332 1084.87 14.5592C1082.73 12.9375 1080.03 12.1267 1076.79 12.1267C1073.83 12.1267 1071.18 12.866 1068.85 14.3446C1066.51 15.7755 1064.65 17.8264 1063.27 20.4974C1061.88 23.1684 1061.17 26.3879 1061.12 30.1559H1053.18C1053.27 24.7185 1054.37 20.092 1056.47 16.2763C1058.57 12.4129 1061.38 9.47954 1064.91 7.47629C1068.44 5.42534 1072.4 4.39987 1076.79 4.39987C1081.65 4.39987 1085.75 5.52073 1089.09 7.76247C1092.48 10.0042 1095.06 13.1522 1096.82 17.2064C1098.59 21.2129 1099.47 25.8394 1099.47 31.086C1099.47 35.331 1098.82 39.1706 1097.54 42.6047C1096.3 46.0388 1094.6 49.2584 1092.46 52.2632C1090.31 55.2681 1087.85 58.2968 1085.09 61.3494C1082.65 63.925 1080.96 66.906 1080.01 70.2925C1079.1 73.6312 1078.65 77.2085 1078.65 81.0242ZM1069.78 104.849C1069.78 103.227 1070.23 101.844 1071.14 100.699C1072.09 99.5542 1073.38 98.9819 1075 98.9819C1076.67 98.9819 1077.98 99.5542 1078.93 100.699C1079.89 101.844 1080.37 103.203 1080.37 104.777C1080.37 106.446 1079.89 107.853 1078.93 108.998C1077.98 110.095 1076.67 110.644 1075 110.644C1073.38 110.644 1072.09 110.095 1071.14 108.998C1070.23 107.901 1069.78 106.518 1069.78 104.849Z" fill="white"/>
</svg>
