<svg width="210" height="47" viewBox="0 0 210 47" fill="none" xmlns="http://www.w3.org/2000/svg">
<path d="M14.8844 22.1969L8.34068 21.9636L8.53094 16.6276L15.0746 16.8609C15.9823 16.8933 16.7288 16.7147 17.3144 16.3252C17.9146 15.9361 18.3592 15.3877 18.6483 14.6798C18.9379 13.9572 19.0989 13.1421 19.1312 12.2345C19.1641 11.3122 19.0556 10.4509 18.8056 9.65043C18.5708 8.83588 18.1768 8.16956 17.6237 7.65147C17.0851 7.13391 16.3547 6.85868 15.4325 6.8258L10.9529 6.66607L10.0031 33.302L3.59118 33.0733L4.73121 1.10147L15.6227 1.48983C17.7747 1.56656 19.6103 2.08641 21.1297 3.04937C22.6491 4.01232 23.7903 5.30625 24.5532 6.93115C25.3312 8.54193 25.6837 10.3721 25.6106 12.4215C25.537 14.4857 25.0559 16.2641 24.1671 17.7568C23.2936 19.2354 22.0661 20.3642 20.4846 21.1433C18.903 21.9224 17.0363 22.2736 14.8844 22.1969ZM27.6148 1.91743L37.8695 2.28309C40.0068 2.3593 41.8164 2.79027 43.2981 3.57599C44.7798 4.36171 45.8977 5.48624 46.6517 6.94959C47.4057 8.41293 47.7451 10.1986 47.6699 12.3067C47.6083 14.0341 47.3214 15.5043 46.8091 16.7173C46.2973 17.9156 45.595 18.9093 44.702 19.6983C43.8096 20.4726 42.7546 21.0799 41.5369 21.5202L39.5411 22.6144L31.2188 22.3176L31.3871 16.9809L37.1622 17.1868C38.0406 17.2181 38.772 17.0536 39.3565 16.6934C39.9561 16.319 40.4076 15.7854 40.7108 15.0927C41.0291 14.3858 41.2053 13.5566 41.2392 12.605C41.2752 11.5949 41.1743 10.7265 40.9363 9.99981C40.7136 9.25898 40.3308 8.68834 39.7881 8.28789C39.2606 7.87332 38.5576 7.65037 37.6793 7.61905L33.8584 7.48281L32.9087 34.1187L26.4748 33.8893L27.6148 1.91743ZM40.9895 34.4069L35.6347 19.9466L42.3768 20.165L47.8735 34.3445L47.8626 34.6519L40.9895 34.4069ZM71.7779 17.0139L71.5877 22.3499C71.5073 24.6043 71.1587 26.5707 70.5418 28.249C69.9402 29.9132 69.1139 31.2982 68.0631 32.404C67.0275 33.4958 65.7895 34.3018 64.3491 34.8221C62.9234 35.3429 61.3541 35.5727 59.6414 35.5117C57.9286 35.4506 56.3724 35.1093 54.9727 34.4877C53.5877 33.8667 52.403 32.9743 51.4184 31.8105C50.449 30.6327 49.7162 29.1921 49.2199 27.4887C48.7242 25.7707 48.5165 23.7845 48.5969 21.5301L48.7872 16.1942C48.8697 13.8812 49.2125 11.8706 49.8158 10.1625C50.4195 8.43978 51.2544 7.01843 52.3204 5.89848C53.3869 4.76389 54.6332 3.92887 56.0595 3.39341C57.4862 2.84332 59.056 2.59881 60.7688 2.65988C62.4816 2.72095 64.0299 3.07665 65.4139 3.72696C66.7984 4.36264 67.9821 5.28431 68.9651 6.49198C69.9486 7.68501 70.6801 9.16221 71.1596 10.9236C71.6543 12.6708 71.8604 14.701 71.7779 17.0139ZM65.1977 22.1221L65.3895 16.7422C65.4438 15.2197 65.3802 13.9202 65.1987 12.8437C65.0178 11.7526 64.72 10.8552 64.3053 10.1515C63.8907 9.4478 63.3744 8.9237 62.7564 8.57919C62.1384 8.23469 61.4122 8.04756 60.5777 8.0178C59.7433 7.98805 58.9983 8.12272 58.3427 8.42181C57.7017 8.72143 57.1494 9.20743 56.6857 9.87981C56.2366 10.5527 55.883 11.4269 55.6247 12.5024C55.3817 13.5637 55.233 14.8556 55.1787 16.3781L54.9869 21.758C54.9347 23.2219 54.9999 24.4774 55.1824 25.5247C55.3649 26.5719 55.664 27.4327 56.0797 28.1071C56.4954 28.7815 57.0122 29.291 57.6302 29.6355C58.2634 29.9659 58.9972 30.1459 59.8316 30.1757C60.6514 30.2049 61.3815 30.0771 62.022 29.7921C62.6776 29.493 63.2294 29.0216 63.6774 28.378C64.1254 27.7344 64.4778 26.8968 64.7344 25.8652C64.9911 24.8337 65.1455 23.586 65.1977 22.1221ZM78.0153 3.71457L82.3765 18.2933L87.721 4.06065L94.7259 4.31043L85.3922 24.3592L84.978 35.9754L78.5002 35.7444L78.9144 24.1282L71.0324 3.46559L78.0153 3.71457ZM112.377 31.6316L112.187 36.9456L98.2876 36.4499L98.4771 31.1359L112.377 31.6316ZM101.426 4.54933L100.286 36.5212L93.852 36.2918L94.992 4.31992L101.426 4.54933ZM110.999 17.8628L110.815 23.0231L98.7817 22.594L98.9657 17.4337L110.999 17.8628ZM113.284 4.97214L113.093 10.3081L99.2374 9.81404L99.4277 4.47808L113.284 4.97214ZM128.863 26.8767L135.253 27.1045C135.08 29.5022 134.524 31.5125 133.587 33.1354C132.65 34.7437 131.354 35.9434 129.699 36.7345C128.058 37.5261 126.096 37.8813 123.813 37.7998C122.041 37.7367 120.478 37.3878 119.123 36.7531C117.768 36.1039 116.628 35.1838 115.703 33.9928C114.778 32.8019 114.097 31.3485 113.66 29.6326C113.238 27.9026 113.067 25.925 113.146 23.6998L113.34 18.276C113.419 16.0509 113.745 14.0911 114.319 12.3966C114.907 10.7026 115.705 9.29456 116.712 8.17252C117.735 7.03636 118.944 6.20003 120.341 5.66353C121.753 5.11292 123.33 4.86867 125.073 4.93079C127.4 5.01378 129.332 5.52238 130.867 6.45658C132.402 7.39078 133.564 8.71477 134.353 10.4285C135.157 12.1282 135.604 14.1889 135.693 16.6106L129.281 16.382C129.292 14.8579 129.159 13.6586 128.882 12.7839C128.621 11.8951 128.174 11.2636 127.542 10.8893C126.911 10.5003 126.025 10.2855 124.883 10.2448C124.034 10.2145 123.297 10.3421 122.671 10.6276C122.045 10.8985 121.523 11.3562 121.105 12.0009C120.686 12.6456 120.362 13.4989 120.134 14.5607C119.92 15.6231 119.786 16.9229 119.731 18.46L119.536 23.9277C119.482 25.4355 119.517 26.7266 119.64 27.801C119.763 28.8608 119.989 29.7336 120.316 30.4196C120.643 31.1055 121.102 31.6129 121.691 31.9417C122.295 32.271 123.065 32.4524 124.002 32.4858C125.085 32.5245 125.962 32.3945 126.632 32.0959C127.317 31.7979 127.836 31.2374 128.187 30.4144C128.539 29.5915 128.765 28.4122 128.863 26.8767ZM149.411 6.26034L148.271 38.2322L141.881 38.0044L143.021 6.03249L149.411 6.26034ZM157.36 6.54378L157.17 11.8797L135.035 11.0905L135.226 5.75453L157.36 6.54378ZM200.428 31.6711C200.449 31.1002 200.416 30.5787 200.33 30.1066C200.245 29.6345 200.04 29.1948 199.718 28.7875C199.41 28.3808 198.948 27.9686 198.333 27.5509C197.732 27.1337 196.941 26.6951 195.961 26.235C194.793 25.695 193.663 25.1271 192.57 24.5311C191.478 23.9205 190.498 23.226 189.632 22.4475C188.766 21.6691 188.087 20.7654 187.596 19.7365C187.12 18.6935 186.907 17.484 186.956 16.1079C187.004 14.7611 187.289 13.5474 187.811 12.4666C188.348 11.3865 189.084 10.4746 190.02 9.7311C190.955 8.97295 192.038 8.40327 193.269 8.02206C194.513 7.64138 195.89 7.47791 197.398 7.53168C199.447 7.60476 201.203 8.09245 202.666 8.99477C204.144 9.8976 205.266 11.1029 206.033 12.6107C206.815 14.119 207.171 15.832 207.103 17.7497L200.691 17.5211C200.724 16.6135 200.62 15.811 200.381 15.1135C200.157 14.402 199.774 13.8386 199.232 13.4236C198.69 13.0085 197.98 12.7853 197.101 12.7539C196.282 12.7247 195.595 12.8688 195.041 13.1862C194.503 13.4894 194.092 13.9218 193.808 14.4834C193.539 15.0308 193.392 15.6558 193.367 16.3585C193.348 16.8855 193.456 17.3657 193.69 17.7991C193.938 18.2184 194.284 18.6045 194.726 18.9574C195.168 19.2956 195.691 19.6294 196.295 19.9588C196.913 20.2886 197.591 20.6133 198.327 20.9327C199.756 21.5553 201.014 22.2304 202.102 22.9582C203.191 23.6712 204.093 24.4656 204.81 25.3413C205.526 26.2023 206.056 27.1667 206.399 28.2343C206.743 29.3018 206.89 30.509 206.842 31.8558C206.794 33.188 206.517 34.3947 206.009 35.4759C205.517 36.543 204.817 37.4562 203.911 38.2154C203.005 38.9599 201.922 39.5223 200.663 39.9025C199.418 40.2832 198.034 40.4464 196.512 40.3921C195.033 40.3394 193.642 40.0846 192.34 39.6277C191.037 39.1562 189.896 38.4779 188.916 37.5928C187.952 36.6936 187.207 35.575 186.683 34.2372C186.16 32.8846 185.931 31.3007 185.995 29.4855L192.429 29.7149C192.395 30.6811 192.46 31.5116 192.626 32.2064C192.792 32.8866 193.066 33.4387 193.447 33.8627C193.828 34.272 194.3 34.5894 194.864 34.8147C195.442 35.0259 196.105 35.1448 196.852 35.1714C197.701 35.2017 198.38 35.0646 198.889 34.7603C199.413 34.4565 199.794 34.0377 200.033 33.5039C200.272 32.9701 200.404 32.3592 200.428 31.6711Z" fill="black"/>
<path d="M0.843458 37.3727L208.119 44.7635L208.04 46.9594L0.76516 39.5686L0.843458 37.3727Z" fill="black"/>
</svg>
