<svg width="190" height="43" viewBox="0 0 190 43" fill="none" xmlns="http://www.w3.org/2000/svg">
<path d="M15.5821 3.5198L16.0454 35.5086L9.65198 35.6012L9.18877 3.61238L15.5821 3.5198ZM23.5354 3.40464L23.6127 8.74343L1.46661 9.06411L1.3893 3.72532L23.5354 3.40464ZM33.5953 8.97246L27.0991 35.3486L20.3102 35.4469L29.8435 3.31329L34.0838 3.25189L33.5953 8.97246ZM39.4025 35.1704L32.1013 8.99409L31.3815 3.29102L35.6877 3.22867L46.2353 35.0715L39.4025 35.1704ZM39.4714 23.237L39.5487 28.5758L25.1142 28.7848L25.0369 23.446L39.4714 23.237ZM64.2645 29.4925L64.3415 34.8093L51.0494 35.0018L50.9724 29.6849L64.2645 29.4925ZM52.5635 2.9843L53.0267 34.9731L46.5894 35.0664L46.1262 3.07752L52.5635 2.9843ZM83.6889 29.2112L83.7659 34.528L69.8587 34.7294L69.7817 29.4126L83.6889 29.2112ZM71.3948 2.71162L71.858 34.7005L65.4206 34.7937L64.9574 2.80484L71.3948 2.71162ZM81.6229 15.5287L81.6977 20.6918L69.6579 20.8661L69.5832 15.7031L81.6229 15.5287ZM83.2587 2.53983L83.3361 7.87863L69.4728 8.07937L69.3955 2.74057L83.2587 2.53983ZM106.726 2.20002L107.189 34.1889L100.971 34.2789L90.641 14.4093L90.9309 34.4243L84.8231 34.5127L84.3599 2.52389L90.4896 2.43513L100.911 22.5232L100.618 2.28847L106.726 2.20002ZM121.295 1.98906L121.758 33.9779L115.365 34.0705L114.901 2.08164L121.295 1.98906ZM129.248 1.8739L129.325 7.21269L107.179 7.53337L107.102 2.19458L129.248 1.8739ZM181.192 24.7009C181.183 24.1296 181.124 23.6104 181.015 23.1432C180.906 22.676 180.68 22.2471 180.337 21.8565C180.009 21.4657 179.528 21.0771 178.892 20.6908C178.271 20.3042 177.46 19.9058 176.457 19.4954C175.264 19.0146 174.106 18.504 172.985 17.9635C171.864 17.4084 170.851 16.7638 169.947 16.0298C169.042 15.2957 168.319 14.4272 167.777 13.4242C167.25 12.4063 166.976 11.209 166.956 9.83218C166.937 8.48467 167.161 7.25815 167.628 6.15264C168.11 5.04691 168.8 4.09933 169.697 3.30989C170.593 2.50581 171.646 1.88259 172.856 1.44022C174.08 0.997646 175.446 0.765436 176.955 0.743591C179.006 0.713898 180.784 1.113 182.29 1.94088C183.811 2.76856 184.993 3.91612 185.834 5.38358C186.69 6.85083 187.133 8.54383 187.16 10.4626L180.745 10.5555C180.732 9.64736 180.588 8.85101 180.315 8.16643C180.056 7.46698 179.645 6.92355 179.083 6.53615C178.52 6.14874 177.8 5.9614 176.921 5.97413C176.101 5.986 175.422 6.1643 174.885 6.50903C174.362 6.8389 173.973 7.29135 173.718 7.8664C173.477 8.42659 173.362 9.05821 173.372 9.76126C173.379 10.2885 173.511 10.7628 173.766 11.1839C174.036 11.5902 174.4 11.9585 174.859 12.2888C175.318 12.6045 175.857 12.9116 176.476 13.2103C177.111 13.5088 177.803 13.7991 178.555 14.0812C180.013 14.6314 181.304 15.2427 182.427 15.915C183.55 16.5726 184.491 17.3208 185.25 18.1595C186.009 18.9836 186.587 19.9201 186.983 20.9692C187.379 22.0182 187.587 23.2165 187.606 24.564C187.626 25.8969 187.409 27.116 186.956 28.2213C186.518 29.3117 185.865 30.2588 184.997 31.0625C184.13 31.8515 183.077 32.4674 181.838 32.9102C180.614 33.3527 179.24 33.585 177.717 33.6071C176.237 33.6285 174.836 33.4437 173.511 33.0527C172.187 32.647 171.013 32.0267 169.99 31.1919C168.982 30.3421 168.182 29.2623 167.592 27.9523C167.002 26.6277 166.693 25.0573 166.667 23.2411L173.104 23.1479C173.118 24.1146 173.225 24.9408 173.426 25.6264C173.626 26.2974 173.927 26.8351 174.328 27.2395C174.729 27.6292 175.217 27.9225 175.791 28.1193C176.38 28.3012 177.048 28.3867 177.795 28.3759C178.644 28.3636 179.316 28.1928 179.809 27.8633C180.317 27.5337 180.677 27.0963 180.889 26.5512C181.101 26.006 181.201 25.3893 181.192 24.7009Z" fill="black"/>
<path d="M0.773672 40.1248L189.528 37.3916L189.56 39.5886L0.805486 42.3218L0.773672 40.1248Z" fill="black"/>
</svg>
