<svg width="1792" height="527" viewBox="0 0 1792 527" fill="none" xmlns="http://www.w3.org/2000/svg">
<mask id="path-1-outside-1_342_260" maskUnits="userSpaceOnUse" x="-3" y="-3" width="1798" height="533" fill="black">
<rect fill="white" x="-3" y="-3" width="1798" height="533"/>
<path d="M187.371 111.246H269.546V392.67C269.546 424.19 263.73 449.893 252.098 469.781C240.654 489.48 224.8 503.927 204.537 513.12C184.275 522.126 161.104 526.628 135.026 526.628C108.759 526.628 85.4011 522.126 64.9509 513.12C44.5008 503.927 28.5534 489.48 17.1088 469.781C5.8518 449.893 0.223312 424.19 0.223312 392.67V111.246H82.3992V392.67C82.3992 410.494 84.3692 424.19 88.3092 433.758C92.4367 443.327 98.3466 449.893 106.039 453.458C113.919 456.835 123.581 458.524 135.026 458.524C146.658 458.524 156.226 456.835 163.731 453.458C171.423 449.893 177.239 443.327 181.179 433.758C185.307 424.19 187.371 410.494 187.371 392.67V111.246ZM436.183 342.296H352.319L352.038 282.634H423.519C434.776 282.634 443.97 280.757 451.099 277.005C458.416 273.065 463.763 267.343 467.14 259.838C470.705 252.146 472.487 242.859 472.487 231.977C472.487 219.407 470.892 209.369 467.703 201.865C464.514 194.172 459.354 188.544 452.225 184.979C445.095 181.415 435.808 179.632 424.364 179.632H380.461V521H298.004V111.246H424.364C444.814 111.246 463.106 113.497 479.241 118C495.376 122.503 509.072 129.351 520.329 138.544C531.586 147.737 540.123 159.37 545.939 173.441C551.943 187.512 554.945 204.116 554.945 223.253C554.945 240.138 551.567 255.711 544.813 269.969C538.059 284.228 527.459 295.86 513.012 304.866C498.754 313.872 480.086 318.937 457.009 320.063L436.183 342.296ZM433.369 521H328.961L361.887 452.895H433.369C444.251 452.895 453.069 450.55 459.823 445.86C466.577 441.169 471.455 434.884 474.457 427.004C477.459 418.937 478.96 409.744 478.96 399.425C478.96 387.792 477.553 377.661 474.739 369.031C472.112 360.4 467.703 353.834 461.512 349.331C455.32 344.641 446.971 342.296 436.465 342.296H365.546L366.109 282.634H452.225L471.643 306.273C493.594 305.523 511.136 309.744 524.269 318.937C537.402 327.943 546.783 339.763 552.412 354.397C558.228 368.843 561.136 384.228 561.136 400.55C561.136 426.817 556.164 448.955 546.22 466.967C536.464 484.79 522.112 498.298 503.162 507.492C484.213 516.497 460.949 521 433.369 521ZM672.614 111.246V521H590.719V111.246H672.614ZM592.689 87.6064L647.848 0.646279H736.497L658.824 87.6064H592.689ZM903.697 384.509H985.591C984.466 415.278 978.274 441.263 967.017 462.464C955.76 483.477 939.719 499.424 918.894 510.306C898.256 521.188 873.303 526.628 844.035 526.628C821.333 526.628 801.165 522.876 783.529 515.372C765.893 507.679 750.883 496.422 738.501 481.601C726.118 466.779 716.737 448.486 710.358 426.723C704.167 404.772 701.071 379.537 701.071 351.02V281.508C701.071 252.99 704.355 227.756 710.921 205.805C717.675 183.854 727.244 165.467 739.626 150.645C752.197 135.636 767.3 124.379 784.936 116.875C802.759 109.182 822.834 105.336 845.161 105.336C874.992 105.336 899.945 110.965 920.02 122.222C940.094 133.479 955.573 149.895 966.455 171.471C977.524 192.859 984.184 219.032 986.436 249.988H904.26C903.697 230.476 901.446 215.185 897.506 204.116C893.753 192.859 887.75 184.979 879.494 180.476C871.239 175.786 859.795 173.441 845.161 173.441C834.279 173.441 824.898 175.411 817.018 179.351C809.138 183.103 802.666 189.201 797.6 197.643C792.534 206.086 788.782 217.155 786.343 230.851C784.092 244.547 782.966 261.245 782.966 280.945V351.02C782.966 370.344 783.998 386.854 786.062 400.55C788.125 414.059 791.409 425.128 795.911 433.758C800.414 442.389 806.512 448.674 814.204 452.614C822.084 456.554 832.027 458.524 844.035 458.524C857.919 458.524 869.082 456.46 877.524 452.332C886.155 448.205 892.534 440.794 896.661 430.1C900.789 419.406 903.134 404.209 903.697 384.509ZM1150.82 184.416L1062.74 521H975.775L1103.82 111.246H1158.14L1150.82 184.416ZM1220.33 521L1131.68 184.416L1123.52 111.246H1178.68L1307.86 521H1220.33ZM1223.43 368.187V436.573H1038.53V368.187H1223.43ZM1441.85 111.246V521H1359.95V111.246H1441.85ZM1543.72 111.246V179.632H1260.05V111.246H1543.72ZM1791.97 452.895V521H1613.83V452.895H1791.97ZM1639.44 111.246V521H1556.98V111.246H1639.44ZM1768.05 277.286V343.421H1613.83V277.286H1768.05ZM1791.41 111.246V179.632H1613.83V111.246H1791.41Z"/>
</mask>
<path d="M187.371 111.246H269.546V392.67C269.546 424.19 263.73 449.893 252.098 469.781C240.654 489.48 224.8 503.927 204.537 513.12C184.275 522.126 161.104 526.628 135.026 526.628C108.759 526.628 85.4011 522.126 64.9509 513.12C44.5008 503.927 28.5534 489.48 17.1088 469.781C5.8518 449.893 0.223312 424.19 0.223312 392.67V111.246H82.3992V392.67C82.3992 410.494 84.3692 424.19 88.3092 433.758C92.4367 443.327 98.3466 449.893 106.039 453.458C113.919 456.835 123.581 458.524 135.026 458.524C146.658 458.524 156.226 456.835 163.731 453.458C171.423 449.893 177.239 443.327 181.179 433.758C185.307 424.19 187.371 410.494 187.371 392.67V111.246ZM436.183 342.296H352.319L352.038 282.634H423.519C434.776 282.634 443.97 280.757 451.099 277.005C458.416 273.065 463.763 267.343 467.14 259.838C470.705 252.146 472.487 242.859 472.487 231.977C472.487 219.407 470.892 209.369 467.703 201.865C464.514 194.172 459.354 188.544 452.225 184.979C445.095 181.415 435.808 179.632 424.364 179.632H380.461V521H298.004V111.246H424.364C444.814 111.246 463.106 113.497 479.241 118C495.376 122.503 509.072 129.351 520.329 138.544C531.586 147.737 540.123 159.37 545.939 173.441C551.943 187.512 554.945 204.116 554.945 223.253C554.945 240.138 551.567 255.711 544.813 269.969C538.059 284.228 527.459 295.86 513.012 304.866C498.754 313.872 480.086 318.937 457.009 320.063L436.183 342.296ZM433.369 521H328.961L361.887 452.895H433.369C444.251 452.895 453.069 450.55 459.823 445.86C466.577 441.169 471.455 434.884 474.457 427.004C477.459 418.937 478.96 409.744 478.96 399.425C478.96 387.792 477.553 377.661 474.739 369.031C472.112 360.4 467.703 353.834 461.512 349.331C455.32 344.641 446.971 342.296 436.465 342.296H365.546L366.109 282.634H452.225L471.643 306.273C493.594 305.523 511.136 309.744 524.269 318.937C537.402 327.943 546.783 339.763 552.412 354.397C558.228 368.843 561.136 384.228 561.136 400.55C561.136 426.817 556.164 448.955 546.22 466.967C536.464 484.79 522.112 498.298 503.162 507.492C484.213 516.497 460.949 521 433.369 521ZM672.614 111.246V521H590.719V111.246H672.614ZM592.689 87.6064L647.848 0.646279H736.497L658.824 87.6064H592.689ZM903.697 384.509H985.591C984.466 415.278 978.274 441.263 967.017 462.464C955.76 483.477 939.719 499.424 918.894 510.306C898.256 521.188 873.303 526.628 844.035 526.628C821.333 526.628 801.165 522.876 783.529 515.372C765.893 507.679 750.883 496.422 738.501 481.601C726.118 466.779 716.737 448.486 710.358 426.723C704.167 404.772 701.071 379.537 701.071 351.02V281.508C701.071 252.99 704.355 227.756 710.921 205.805C717.675 183.854 727.244 165.467 739.626 150.645C752.197 135.636 767.3 124.379 784.936 116.875C802.759 109.182 822.834 105.336 845.161 105.336C874.992 105.336 899.945 110.965 920.02 122.222C940.094 133.479 955.573 149.895 966.455 171.471C977.524 192.859 984.184 219.032 986.436 249.988H904.26C903.697 230.476 901.446 215.185 897.506 204.116C893.753 192.859 887.75 184.979 879.494 180.476C871.239 175.786 859.795 173.441 845.161 173.441C834.279 173.441 824.898 175.411 817.018 179.351C809.138 183.103 802.666 189.201 797.6 197.643C792.534 206.086 788.782 217.155 786.343 230.851C784.092 244.547 782.966 261.245 782.966 280.945V351.02C782.966 370.344 783.998 386.854 786.062 400.55C788.125 414.059 791.409 425.128 795.911 433.758C800.414 442.389 806.512 448.674 814.204 452.614C822.084 456.554 832.027 458.524 844.035 458.524C857.919 458.524 869.082 456.46 877.524 452.332C886.155 448.205 892.534 440.794 896.661 430.1C900.789 419.406 903.134 404.209 903.697 384.509ZM1150.82 184.416L1062.74 521H975.775L1103.82 111.246H1158.14L1150.82 184.416ZM1220.33 521L1131.68 184.416L1123.52 111.246H1178.68L1307.86 521H1220.33ZM1223.43 368.187V436.573H1038.53V368.187H1223.43ZM1441.85 111.246V521H1359.95V111.246H1441.85ZM1543.72 111.246V179.632H1260.05V111.246H1543.72ZM1791.97 452.895V521H1613.83V452.895H1791.97ZM1639.44 111.246V521H1556.98V111.246H1639.44ZM1768.05 277.286V343.421H1613.83V277.286H1768.05ZM1791.41 111.246V179.632H1613.83V111.246H1791.41Z" fill="black"/>
<path d="M187.371 111.246V108.246H184.371V111.246H187.371ZM269.546 111.246H272.546V108.246H269.546V111.246ZM252.098 469.781L249.509 468.266L249.504 468.274L252.098 469.781ZM204.537 513.12L205.756 515.862L205.766 515.857L205.777 515.852L204.537 513.12ZM64.9509 513.12L63.7209 515.856L63.7314 515.861L63.7419 515.866L64.9509 513.12ZM17.1088 469.781L14.498 471.259L14.5063 471.273L14.5148 471.288L17.1088 469.781ZM0.223312 111.246V108.246H-2.77669V111.246H0.223312ZM82.3992 111.246H85.3992V108.246H82.3992V111.246ZM88.3092 433.758L85.5351 434.901L85.5446 434.924L85.5545 434.947L88.3092 433.758ZM106.039 453.458L104.778 456.18L104.817 456.198L104.857 456.216L106.039 453.458ZM163.731 453.458L164.962 456.194L164.977 456.187L164.992 456.18L163.731 453.458ZM181.179 433.758L178.425 432.57L178.415 432.593L178.405 432.616L181.179 433.758ZM187.371 114.246H269.546V108.246H187.371V114.246ZM266.546 111.246V392.67H272.546V111.246H266.546ZM266.546 392.67C266.546 423.846 260.791 448.977 249.509 468.266L254.688 471.295C266.67 450.81 272.546 424.534 272.546 392.67H266.546ZM249.504 468.274C238.365 487.448 222.978 501.459 203.298 510.388L205.777 515.852C226.622 506.395 242.942 491.513 254.692 471.288L249.504 468.274ZM203.319 510.379C183.502 519.186 160.758 523.628 135.026 523.628V529.628C161.451 529.628 185.048 525.065 205.756 515.862L203.319 510.379ZM135.026 523.628C109.103 523.628 86.1682 519.186 66.16 510.375L63.7419 515.866C84.634 525.066 108.415 529.628 135.026 529.628V523.628ZM66.181 510.384C46.3126 501.452 30.8378 487.441 19.7028 468.274L14.5148 471.288C26.2689 491.52 42.6889 506.402 63.7209 515.856L66.181 510.384ZM19.7195 468.303C8.79637 449.005 3.22331 423.859 3.22331 392.67H-2.77669C-2.77669 424.521 2.90723 450.782 14.498 471.259L19.7195 468.303ZM3.22331 392.67V111.246H-2.77669V392.67H3.22331ZM0.223312 114.246H82.3992V108.246H0.223312V114.246ZM79.3992 111.246V392.67H85.3992V111.246H79.3992ZM79.3992 392.67C79.3992 410.644 81.3754 424.798 85.5351 434.901L91.0832 432.616C87.363 423.582 85.3992 410.344 85.3992 392.67H79.3992ZM85.5545 434.947C89.9044 445.03 96.2713 452.238 104.778 456.18L107.3 450.736C100.422 447.549 94.9691 441.623 91.0638 432.57L85.5545 434.947ZM104.857 456.216C113.213 459.797 123.304 461.524 135.026 461.524V455.524C123.858 455.524 114.625 453.874 107.221 450.701L104.857 456.216ZM135.026 461.524C146.919 461.524 156.945 459.802 164.962 456.194L162.5 450.722C155.508 453.869 146.397 455.524 135.026 455.524V461.524ZM164.992 456.18C173.513 452.231 179.793 445.005 183.953 434.901L178.405 432.616C174.686 441.648 169.333 447.556 162.47 450.736L164.992 456.18ZM183.934 434.947C188.299 424.827 190.371 410.653 190.371 392.67H184.371C184.371 410.335 182.314 423.553 178.425 432.57L183.934 434.947ZM190.371 392.67V111.246H184.371V392.67H190.371ZM436.183 342.296V345.296H437.484L438.373 344.346L436.183 342.296ZM352.319 342.296L349.319 342.31L349.333 345.296H352.319V342.296ZM352.038 282.634V279.634H349.023L349.038 282.648L352.038 282.634ZM451.099 277.005L452.496 279.66L452.509 279.653L452.521 279.646L451.099 277.005ZM467.14 259.838L464.418 258.577L464.411 258.592L464.404 258.607L467.14 259.838ZM467.703 201.865L464.932 203.014L464.937 203.026L464.942 203.038L467.703 201.865ZM380.461 179.632V176.632H377.461V179.632H380.461ZM380.461 521V524H383.461V521H380.461ZM298.004 521H295.004V524H298.004V521ZM298.004 111.246V108.246H295.004V111.246H298.004ZM545.939 173.441L543.167 174.587L543.173 174.603L543.18 174.618L545.939 173.441ZM544.813 269.969L542.102 268.685L544.813 269.969ZM513.012 304.866L511.425 302.32L511.418 302.325L511.41 302.33L513.012 304.866ZM457.009 320.063L456.863 317.067L455.65 317.126L454.819 318.012L457.009 320.063ZM328.961 521L326.26 519.694L324.178 524H328.961V521ZM361.887 452.895V449.895H360.006L359.187 451.589L361.887 452.895ZM459.823 445.86L461.534 448.324L459.823 445.86ZM474.457 427.004L477.261 428.072L477.265 428.061L477.269 428.05L474.457 427.004ZM474.739 369.031L471.869 369.904L471.877 369.933L471.886 369.961L474.739 369.031ZM461.512 349.331L459.7 351.722L459.723 351.74L459.747 351.757L461.512 349.331ZM365.546 342.296L362.546 342.267L362.518 345.296H365.546V342.296ZM366.109 282.634V279.634H363.137L363.109 282.605L366.109 282.634ZM452.225 282.634L454.543 280.729L453.643 279.634H452.225V282.634ZM471.643 306.273L469.325 308.177L470.265 309.322L471.745 309.271L471.643 306.273ZM524.269 318.937L522.549 321.395L522.561 321.403L522.573 321.411L524.269 318.937ZM552.412 354.397L549.612 355.474L549.62 355.495L549.629 355.517L552.412 354.397ZM546.22 466.967L543.594 465.517L543.589 465.526L546.22 466.967ZM503.162 507.492L504.45 510.201L504.461 510.196L504.472 510.191L503.162 507.492ZM436.183 339.296H352.319V345.296H436.183V339.296ZM355.319 342.281L355.038 282.619L349.038 282.648L349.319 342.31L355.319 342.281ZM352.038 285.634H423.519V279.634H352.038V285.634ZM423.519 285.634C435.081 285.634 444.799 283.711 452.496 279.66L449.702 274.35C443.14 277.804 434.472 279.634 423.519 279.634V285.634ZM452.521 279.646C460.413 275.397 466.225 269.182 469.876 261.069L464.404 258.607C461.301 265.504 456.419 270.733 449.677 274.364L452.521 279.646ZM469.862 261.1C473.654 252.917 475.487 243.176 475.487 231.977H469.487C469.487 242.542 467.756 251.375 464.418 258.577L469.862 261.1ZM475.487 231.977C475.487 219.199 473.873 208.713 470.464 200.691L464.942 203.038C467.912 210.026 469.487 219.614 469.487 231.977H475.487ZM470.474 200.716C467.022 192.389 461.372 186.199 453.566 182.296L450.883 187.663C457.336 190.889 462.005 195.956 464.932 203.014L470.474 200.716ZM453.566 182.296C445.879 178.452 436.085 176.632 424.364 176.632V182.632C435.531 182.632 444.311 184.377 450.883 187.663L453.566 182.296ZM424.364 176.632H380.461V182.632H424.364V176.632ZM377.461 179.632V521H383.461V179.632H377.461ZM380.461 518H298.004V524H380.461V518ZM301.004 521V111.246H295.004V521H301.004ZM298.004 114.246H424.364V108.246H298.004V114.246ZM424.364 114.246C444.599 114.246 462.613 116.474 478.435 120.89L480.048 115.111C463.6 110.521 445.029 108.246 424.364 108.246V114.246ZM478.435 120.89C494.232 125.298 507.541 131.974 518.432 140.868L522.227 136.221C510.604 126.728 496.521 119.708 480.048 115.111L478.435 120.89ZM518.432 140.868C529.286 149.732 537.531 160.952 543.167 174.587L548.711 172.295C542.715 157.787 533.887 145.743 522.227 136.221L518.432 140.868ZM543.18 174.618C548.99 188.236 551.945 204.423 551.945 223.253H557.945C557.945 203.81 554.895 186.788 548.698 172.264L543.18 174.618ZM551.945 223.253C551.945 239.726 548.653 254.856 542.102 268.685L547.525 271.254C554.482 256.566 557.945 240.551 557.945 223.253H551.945ZM542.102 268.685C535.614 282.383 525.424 293.594 511.425 302.32L514.599 307.412C529.494 298.127 540.505 286.073 547.525 271.254L542.102 268.685ZM511.41 302.33C497.721 310.975 479.605 315.957 456.863 317.067L457.155 323.059C480.566 321.917 499.786 316.768 514.614 307.403L511.41 302.33ZM454.819 318.012L433.994 340.245L438.373 344.346L459.198 322.114L454.819 318.012ZM433.369 518H328.961V524H433.369V518ZM331.662 522.306L364.588 454.201L359.187 451.589L326.26 519.694L331.662 522.306ZM361.887 455.895H433.369V449.895H361.887V455.895ZM433.369 455.895C444.667 455.895 454.138 453.46 461.534 448.324L458.112 443.396C452 447.64 443.834 449.895 433.369 449.895V455.895ZM461.534 448.324C468.798 443.279 474.049 436.502 477.261 428.072L471.654 425.936C468.861 433.267 464.356 439.059 458.112 443.396L461.534 448.324ZM477.269 428.05C480.417 419.589 481.96 410.032 481.96 399.425H475.96C475.96 409.456 474.501 418.284 471.646 425.958L477.269 428.05ZM481.96 399.425C481.96 387.561 480.526 377.102 477.591 368.101L471.886 369.961C474.58 378.22 475.96 388.024 475.96 399.425H481.96ZM477.609 368.157C474.827 359.018 470.085 351.857 463.276 346.905L459.747 351.757C465.321 355.811 469.397 361.783 471.869 369.904L477.609 368.157ZM463.323 346.94C456.454 341.736 447.397 339.296 436.465 339.296V345.296C446.546 345.296 454.187 347.546 459.7 351.722L463.323 346.94ZM436.465 339.296H365.546V345.296H436.465V339.296ZM368.546 342.324L369.109 282.662L363.109 282.605L362.546 342.267L368.546 342.324ZM366.109 285.634H452.225V279.634H366.109V285.634ZM449.906 284.538L469.325 308.177L473.961 304.369L454.543 280.729L449.906 284.538ZM471.745 309.271C493.283 308.535 510.115 312.691 522.549 321.395L525.99 316.48C512.158 306.797 493.905 302.51 471.54 303.275L471.745 309.271ZM522.573 321.411C535.214 330.079 544.205 341.416 549.612 355.474L555.212 353.32C549.362 338.11 539.591 325.806 525.966 316.463L522.573 321.411ZM549.629 355.517C555.295 369.59 558.136 384.593 558.136 400.55H564.136C564.136 383.863 561.161 368.096 555.195 353.276L549.629 355.517ZM558.136 400.55C558.136 426.447 553.234 448.056 543.594 465.517L548.847 468.416C559.094 449.855 564.136 427.187 564.136 400.55H558.136ZM543.589 465.526C534.143 482.782 520.263 495.861 501.853 504.793L504.472 510.191C523.96 500.736 538.785 486.798 548.852 468.407L543.589 465.526ZM501.875 504.782C483.434 513.546 460.638 518 433.369 518V524C461.26 524 484.993 519.448 504.45 510.201L501.875 504.782ZM672.614 111.246H675.614V108.246H672.614V111.246ZM672.614 521V524H675.614V521H672.614ZM590.719 521H587.719V524H590.719V521ZM590.719 111.246V108.246H587.719V111.246H590.719ZM592.689 87.6064L590.156 85.9995L587.234 90.6064H592.689V87.6064ZM647.848 0.646278V-2.35372H646.199L645.315 -0.960632L647.848 0.646278ZM736.497 0.646278L738.734 2.64476L743.199 -2.35372H736.497V0.646278ZM658.824 87.6064V90.6064H660.167L661.061 89.6049L658.824 87.6064ZM669.614 111.246V521H675.614V111.246H669.614ZM672.614 518H590.719V524H672.614V518ZM593.719 521V111.246H587.719V521H593.719ZM590.719 114.246H672.614V108.246H590.719V114.246ZM595.223 89.2133L650.382 2.25319L645.315 -0.960632L590.156 85.9995L595.223 89.2133ZM647.848 3.64628H736.497V-2.35372H647.848V3.64628ZM734.26 -1.3522L656.587 85.6079L661.061 89.6049L738.734 2.64476L734.26 -1.3522ZM658.824 84.6064H592.689V90.6064H658.824V84.6064ZM903.697 384.509V381.509H900.781L900.698 384.423L903.697 384.509ZM985.591 384.509L988.589 384.619L988.703 381.509H985.591V384.509ZM967.017 462.464L969.662 463.88L969.667 463.871L967.017 462.464ZM918.894 510.306L917.505 507.647L917.495 507.652L918.894 510.306ZM783.529 515.372L782.329 518.121L782.342 518.127L782.354 518.132L783.529 515.372ZM710.358 426.723L707.471 427.537L707.475 427.552L707.479 427.567L710.358 426.723ZM710.921 205.805L708.054 204.922L708.05 204.934L708.047 204.945L710.921 205.805ZM739.626 150.645L737.327 148.719L737.324 148.722L739.626 150.645ZM784.936 116.875L786.11 119.635L786.118 119.632L786.125 119.629L784.936 116.875ZM920.02 122.222L918.552 124.838L920.02 122.222ZM966.455 171.471L963.776 172.822L963.783 172.836L963.79 172.85L966.455 171.471ZM986.436 249.988V252.988H989.662L989.428 249.771L986.436 249.988ZM904.26 249.988L901.261 250.075L901.345 252.988H904.26V249.988ZM897.506 204.116L894.66 205.065L894.669 205.094L894.679 205.122L897.506 204.116ZM879.494 180.476L878.012 183.085L878.035 183.098L878.058 183.11L879.494 180.476ZM817.018 179.351L818.308 182.059L818.334 182.047L818.36 182.034L817.018 179.351ZM786.343 230.851L783.389 230.325L783.386 230.345L783.383 230.365L786.343 230.851ZM786.062 400.55L783.095 400.997L783.096 401.003L786.062 400.55ZM814.204 452.614L812.836 455.284L812.849 455.291L812.862 455.297L814.204 452.614ZM877.524 452.332L876.23 449.626L876.218 449.632L876.207 449.637L877.524 452.332ZM903.697 387.509H985.591V381.509H903.697V387.509ZM982.593 384.399C981.48 414.839 975.361 440.353 964.368 461.057L969.667 463.871C981.188 442.173 987.452 415.717 988.589 384.619L982.593 384.399ZM964.373 461.047C953.396 481.538 937.788 497.048 917.505 507.647L920.283 512.965C941.65 501.8 958.125 485.416 969.662 463.88L964.373 461.047ZM917.495 507.652C897.384 518.256 872.937 523.628 844.035 523.628V529.628C873.669 529.628 899.128 524.119 920.293 512.96L917.495 507.652ZM844.035 523.628C821.664 523.628 801.906 519.931 784.703 512.611L782.354 518.132C800.423 525.821 821.003 529.628 844.035 529.628V523.628ZM784.728 512.622C767.521 505.116 752.888 494.143 740.803 479.677L736.198 483.524C748.879 498.702 764.265 510.242 782.329 518.121L784.728 512.622ZM740.803 479.677C728.727 465.222 719.52 447.315 713.237 425.879L707.479 427.567C713.954 449.658 723.51 468.336 736.198 483.524L740.803 479.677ZM713.246 425.908C707.145 404.279 704.071 379.328 704.071 351.02H698.071C698.071 379.747 701.189 405.265 707.471 427.537L713.246 425.908ZM704.071 351.02V281.508H698.071V351.02H704.071ZM704.071 281.508C704.071 253.213 707.33 228.278 713.795 206.664L708.047 204.945C701.38 227.233 698.071 252.767 698.071 281.508H704.071ZM713.789 206.687C720.447 185.046 729.845 167.032 741.929 152.569L737.324 148.722C724.642 163.902 714.904 182.661 708.054 204.922L713.789 206.687ZM741.926 152.572C754.199 137.917 768.92 126.95 786.11 119.635L783.761 114.114C765.68 121.808 750.194 133.355 737.327 148.719L741.926 152.572ZM786.125 119.629C803.521 112.121 823.182 108.336 845.161 108.336V102.336C822.486 102.336 801.998 106.243 783.747 114.12L786.125 119.629ZM845.161 108.336C874.626 108.336 899.039 113.896 918.552 124.838L921.487 119.605C900.85 108.033 875.357 102.336 845.161 102.336V108.336ZM918.552 124.838C938.08 135.788 953.149 151.751 963.776 172.822L969.133 170.12C957.997 148.039 942.109 131.169 921.487 119.605L918.552 124.838ZM963.79 172.85C974.627 193.789 981.214 219.542 983.444 250.206L989.428 249.771C987.155 218.521 980.421 191.929 969.119 170.092L963.79 172.85ZM986.436 246.988H904.26V252.988H986.436V246.988ZM907.259 249.902C906.692 230.254 904.424 214.606 900.332 203.11L894.679 205.122C898.467 215.765 900.702 230.698 901.261 250.075L907.259 249.902ZM900.352 203.167C896.425 191.387 890.014 182.797 880.931 177.843L878.058 183.11C885.485 187.161 891.082 194.331 894.66 205.065L900.352 203.167ZM880.976 177.868C872.089 172.818 860.057 170.441 845.161 170.441V176.441C859.532 176.441 870.39 178.754 878.012 183.085L880.976 177.868ZM845.161 170.441C833.921 170.441 824.059 172.476 815.677 176.667L818.36 182.034C825.737 178.346 834.637 176.441 845.161 176.441V170.441ZM815.728 176.642C807.249 180.68 800.357 187.218 795.027 196.1L800.172 199.187C804.975 191.183 811.027 185.526 818.308 182.059L815.728 176.642ZM795.027 196.1C789.714 204.956 785.868 216.407 783.389 230.325L789.296 231.377C791.696 217.904 795.355 207.216 800.172 199.187L795.027 196.1ZM783.383 230.365C781.096 244.273 779.966 261.144 779.966 280.945H785.966C785.966 261.347 787.087 244.822 789.303 231.338L783.383 230.365ZM779.966 280.945V351.02H785.966V280.945H779.966ZM779.966 351.02C779.966 370.44 781.002 387.108 783.095 400.997L789.028 400.103C786.993 386.6 785.966 370.248 785.966 351.02H779.966ZM783.096 401.003C785.191 414.717 788.548 426.131 793.252 435.146L798.571 432.371C794.269 424.125 791.06 413.401 789.027 400.097L783.096 401.003ZM793.252 435.146C798.004 444.255 804.522 451.026 812.836 455.284L815.572 449.944C808.501 446.322 802.824 440.523 798.571 432.371L793.252 435.146ZM812.862 455.297C821.282 459.507 831.722 461.524 844.035 461.524V455.524C832.333 455.524 822.886 453.601 815.546 449.931L812.862 455.297ZM844.035 461.524C858.175 461.524 869.841 459.428 878.842 455.028L876.207 449.637C868.323 453.492 857.662 455.524 844.035 455.524V461.524ZM878.819 455.039C888.272 450.518 895.115 442.438 899.46 431.18L893.863 429.02C889.953 439.15 884.037 445.892 876.23 449.626L878.819 455.039ZM899.46 431.18C903.768 420.019 906.129 404.427 906.696 384.595L900.698 384.423C900.139 403.991 897.81 418.792 893.863 429.02L899.46 431.18ZM1150.82 184.416L1153.72 185.176L1153.78 184.949L1153.81 184.715L1150.82 184.416ZM1062.74 521V524H1065.05L1065.64 521.76L1062.74 521ZM975.775 521L972.912 520.105L971.695 524H975.775V521ZM1103.82 111.246V108.246H1101.62L1100.96 110.351L1103.82 111.246ZM1158.14 111.246L1161.12 111.545L1161.45 108.246H1158.14V111.246ZM1220.33 521L1217.43 521.764L1218.02 524H1220.33V521ZM1131.68 184.416L1128.7 184.749L1128.73 184.968L1128.78 185.18L1131.68 184.416ZM1123.52 111.246V108.246H1120.17L1120.54 111.579L1123.52 111.246ZM1178.68 111.246L1181.54 110.344L1180.88 108.246H1178.68V111.246ZM1307.86 521V524H1311.95L1310.72 520.098L1307.86 521ZM1223.43 368.187H1226.43V365.187H1223.43V368.187ZM1223.43 436.573V439.573H1226.43V436.573H1223.43ZM1038.53 436.573H1035.53V439.573H1038.53V436.573ZM1038.53 368.187V365.187H1035.53V368.187H1038.53ZM1147.92 183.657L1059.83 520.24L1065.64 521.76L1153.72 185.176L1147.92 183.657ZM1062.74 518H975.775V524H1062.74V518ZM978.639 521.895L1106.69 112.141L1100.96 110.351L972.912 520.105L978.639 521.895ZM1103.82 114.246H1158.14V108.246H1103.82V114.246ZM1155.15 110.948L1147.84 184.118L1153.81 184.715L1161.12 111.545L1155.15 110.948ZM1223.23 520.236L1134.59 183.652L1128.78 185.18L1217.43 521.764L1223.23 520.236ZM1134.67 184.084L1126.5 110.914L1120.54 111.579L1128.7 184.749L1134.67 184.084ZM1123.52 114.246H1178.68V108.246H1123.52V114.246ZM1175.82 112.148L1304.99 521.902L1310.72 520.098L1181.54 110.344L1175.82 112.148ZM1307.86 518H1220.33V524H1307.86V518ZM1220.43 368.187V436.573H1226.43V368.187H1220.43ZM1223.43 433.573H1038.53V439.573H1223.43V433.573ZM1041.53 436.573V368.187H1035.53V436.573H1041.53ZM1038.53 371.187H1223.43V365.187H1038.53V371.187ZM1441.85 111.246H1444.85V108.246H1441.85V111.246ZM1441.85 521V524H1444.85V521H1441.85ZM1359.95 521H1356.95V524H1359.95V521ZM1359.95 111.246V108.246H1356.95V111.246H1359.95ZM1543.72 111.246H1546.72V108.246H1543.72V111.246ZM1543.72 179.632V182.632H1546.72V179.632H1543.72ZM1260.05 179.632H1257.05V182.632H1260.05V179.632ZM1260.05 111.246V108.246H1257.05V111.246H1260.05ZM1438.85 111.246V521H1444.85V111.246H1438.85ZM1441.85 518H1359.95V524H1441.85V518ZM1362.95 521V111.246H1356.95V521H1362.95ZM1359.95 114.246H1441.85V108.246H1359.95V114.246ZM1540.72 111.246V179.632H1546.72V111.246H1540.72ZM1543.72 176.632H1260.05V182.632H1543.72V176.632ZM1263.05 179.632V111.246H1257.05V179.632H1263.05ZM1260.05 114.246H1543.72V108.246H1260.05V114.246ZM1791.97 452.895H1794.97V449.895H1791.97V452.895ZM1791.97 521V524H1794.97V521H1791.97ZM1613.83 521H1610.83V524H1613.83V521ZM1613.83 452.895V449.895H1610.83V452.895H1613.83ZM1639.44 111.246H1642.44V108.246H1639.44V111.246ZM1639.44 521V524H1642.44V521H1639.44ZM1556.98 521H1553.98V524H1556.98V521ZM1556.98 111.246V108.246H1553.98V111.246H1556.98ZM1768.05 277.286H1771.05V274.286H1768.05V277.286ZM1768.05 343.421V346.421H1771.05V343.421H1768.05ZM1613.83 343.421H1610.83V346.421H1613.83V343.421ZM1613.83 277.286V274.286H1610.83V277.286H1613.83ZM1791.41 111.246H1794.41V108.246H1791.41V111.246ZM1791.41 179.632V182.632H1794.41V179.632H1791.41ZM1613.83 179.632H1610.83V182.632H1613.83V179.632ZM1613.83 111.246V108.246H1610.83V111.246H1613.83ZM1788.97 452.895V521H1794.97V452.895H1788.97ZM1791.97 518H1613.83V524H1791.97V518ZM1616.83 521V452.895H1610.83V521H1616.83ZM1613.83 455.895H1791.97V449.895H1613.83V455.895ZM1636.44 111.246V521H1642.44V111.246H1636.44ZM1639.44 518H1556.98V524H1639.44V518ZM1559.98 521V111.246H1553.98V521H1559.98ZM1556.98 114.246H1639.44V108.246H1556.98V114.246ZM1765.05 277.286V343.421H1771.05V277.286H1765.05ZM1768.05 340.421H1613.83V346.421H1768.05V340.421ZM1616.83 343.421V277.286H1610.83V343.421H1616.83ZM1613.83 280.286H1768.05V274.286H1613.83V280.286ZM1788.41 111.246V179.632H1794.41V111.246H1788.41ZM1791.41 176.632H1613.83V182.632H1791.41V176.632ZM1616.83 179.632V111.246H1610.83V179.632H1616.83ZM1613.83 114.246H1791.41V108.246H1613.83V114.246Z" fill="black" mask="url(#path-1-outside-1_342_260)"/>
</svg>
