<svg width="1180" height="221" viewBox="0 0 1180 221" fill="none" xmlns="http://www.w3.org/2000/svg">
<path d="M102.016 149.411H143.17C142.604 164.873 139.493 177.931 133.836 188.585C128.179 199.144 120.118 207.158 109.653 212.626C99.2823 218.094 86.7431 220.828 72.0355 220.828C60.6277 220.828 50.4926 218.943 41.6303 215.171C32.768 211.306 25.2257 205.649 19.0032 198.201C12.7808 190.753 8.06678 181.561 4.86127 170.624C1.75004 159.594 0.194429 146.913 0.194429 132.582V97.6518C0.194429 83.3213 1.84432 70.6407 5.14411 59.6099C8.53818 48.5792 13.3464 39.3398 19.5689 31.8917C25.8856 24.3494 33.4751 18.6926 42.3374 14.9214C51.294 11.0559 61.3819 9.1232 72.6012 9.1232C87.5917 9.1232 100.131 11.9516 110.219 17.6084C120.307 23.2651 128.085 31.5146 133.553 42.3568C139.115 53.1047 142.462 66.2567 143.594 81.8128H102.299C102.016 72.0077 100.885 64.3239 98.9052 58.7614C97.0196 53.1047 94.0027 49.1449 89.8544 46.8822C85.7061 44.5252 79.955 43.3467 72.6012 43.3467C67.133 43.3467 62.419 44.3366 58.4593 46.3165C54.4995 48.2021 51.2469 51.2662 48.7013 55.5088C46.1558 59.7514 44.2702 65.3139 43.0445 72.1963C41.9132 79.0787 41.3475 87.4696 41.3475 97.3689V132.582C41.3475 142.293 41.866 150.59 42.9031 157.472C43.9402 164.26 45.5901 169.823 47.8528 174.16C50.1155 178.497 53.1796 181.655 57.0451 183.635C61.0048 185.615 66.0016 186.605 72.0355 186.605C79.0122 186.605 84.6219 185.568 88.8644 183.493C93.2013 181.419 96.4068 177.695 98.481 172.321C100.555 166.947 101.734 159.311 102.016 149.411ZM229.447 181.231V64.9839H269.186V218H231.851L229.447 181.231ZM233.972 149.694L245.003 149.411C245.003 159.688 244.013 169.21 242.033 177.978C240.053 186.652 237.083 194.194 233.124 200.605C229.164 207.016 224.214 212.013 218.275 215.596C212.335 219.084 205.311 220.828 197.203 220.828C190.981 220.828 185.23 219.791 179.95 217.717C174.765 215.548 170.286 212.202 166.515 207.676C162.744 203.056 159.774 197.164 157.606 189.999C155.531 182.739 154.494 174.018 154.494 163.836V64.9839H194.233V164.26C194.233 168.409 194.61 171.991 195.365 175.008C196.119 177.931 197.156 180.335 198.476 182.221C199.796 184.106 201.351 185.473 203.143 186.322C204.934 187.076 206.961 187.453 209.224 187.453C215.446 187.453 220.349 185.85 223.931 182.645C227.608 179.345 230.201 174.867 231.709 169.21C233.218 163.459 233.972 156.954 233.972 149.694ZM348.109 220.828C337.644 220.828 328.357 219.225 320.249 216.02C312.236 212.814 305.447 208.195 299.885 202.161C294.322 196.033 290.08 188.632 287.157 179.958C284.234 171.284 282.773 161.385 282.773 150.26V137.673C282.773 125.229 284.187 114.339 287.016 105.006C289.844 95.5776 293.851 87.6581 299.036 81.2471C304.222 74.8361 310.586 70.075 318.128 66.9638C325.765 63.7583 334.391 62.1555 344.008 62.1555C353.624 62.1555 362.062 63.7583 369.322 66.9638C376.676 70.075 382.757 74.789 387.565 81.1057C392.373 87.3282 396.003 95.0591 398.454 104.299C400.906 113.538 402.131 124.286 402.131 136.542V154.644H299.602V126.784H363.241V123.249C363.241 117.026 362.581 111.841 361.261 107.693C359.941 103.45 357.867 100.292 355.038 98.2175C352.21 96.1433 348.439 95.1062 343.725 95.1062C339.765 95.1062 336.418 95.9076 333.684 97.5104C330.95 99.1131 328.782 101.612 327.179 105.006C325.576 108.4 324.398 112.831 323.643 118.299C322.889 123.673 322.512 130.131 322.512 137.673V150.26C322.512 157.331 323.125 163.27 324.35 168.079C325.576 172.793 327.367 176.658 329.724 179.675C332.176 182.598 335.145 184.719 338.634 186.039C342.122 187.265 346.176 187.877 350.796 187.877C357.773 187.877 364.042 186.652 369.605 184.201C375.261 181.655 380.07 178.214 384.029 173.877L399.868 197.918C397.134 201.501 393.363 205.083 388.555 208.666C383.747 212.249 377.996 215.171 371.302 217.434C364.608 219.697 356.877 220.828 348.109 220.828ZM319.259 44.3366L346.978 0.63803H391.525L352.493 44.3366H319.259ZM452.346 97.6518V218H412.608V64.9839H449.801L452.346 97.6518ZM446.407 136.259L435.8 136.542C435.612 125.04 436.696 114.716 439.053 105.571C441.504 96.4262 444.945 88.6481 449.377 82.2371C453.902 75.7318 459.276 70.7821 465.498 67.388C471.815 63.8997 478.839 62.1555 486.57 62.1555C492.51 62.1555 497.931 63.1926 502.833 65.2667C507.83 67.3409 512.12 70.6407 515.702 75.1661C519.285 79.6915 522.066 85.7254 524.046 93.2678C526.026 100.716 527.016 109.861 527.016 120.703V218H487.277V120.42C487.277 113.821 486.617 108.73 485.297 105.147C483.977 101.47 481.997 98.9246 479.358 97.5104C476.718 96.0019 473.418 95.2477 469.458 95.2477C465.687 95.2477 462.34 96.3319 459.417 98.5003C456.495 100.574 454.043 103.45 452.064 107.127C450.178 110.804 448.717 115.141 447.68 120.137C446.737 125.134 446.313 130.508 446.407 136.259ZM611.172 64.9839V94.8234H533.108V64.9839H611.172ZM551.069 27.2249H590.525V171.331C590.525 175.574 590.949 178.827 591.797 181.089C592.646 183.352 593.919 184.955 595.616 185.898C597.407 186.746 599.764 187.17 602.687 187.17C604.666 187.17 606.505 187.076 608.202 186.887C609.899 186.605 611.172 186.322 612.02 186.039V217.01C608.909 218.235 605.609 219.178 602.121 219.838C598.727 220.498 594.673 220.828 589.959 220.828C582.039 220.828 575.157 219.32 569.312 216.303C563.561 213.286 559.082 208.478 555.877 201.878C552.671 195.184 551.069 186.416 551.069 175.574V27.2249ZM689.105 182.786V112.077C689.105 107.457 688.54 103.78 687.408 101.046C686.371 98.3117 684.768 96.3319 682.6 95.1062C680.526 93.7863 677.98 93.1264 674.963 93.1264C671.569 93.1264 668.741 93.8335 666.478 95.2477C664.215 96.6619 662.518 98.6889 661.387 101.329C660.35 103.969 659.831 107.127 659.831 110.804H620.093C620.093 104.204 621.365 97.9818 623.911 92.1364C626.456 86.1968 630.18 81.0114 635.083 76.5803C640.08 72.0549 646.019 68.5194 652.902 65.9738C659.784 63.4283 667.515 62.1555 676.095 62.1555C686.277 62.1555 695.328 63.8997 703.247 67.388C711.167 70.7821 717.436 76.2032 722.056 83.6513C726.676 91.0994 728.986 100.763 728.986 112.642V180.806C728.986 189.386 729.41 196.363 730.258 201.737C731.201 207.11 732.568 211.73 734.359 215.596V218H694.479C692.688 213.757 691.321 208.478 690.378 202.161C689.53 195.75 689.105 189.292 689.105 182.786ZM693.914 124.521L694.055 148.28H679.489C675.718 148.28 672.418 148.893 669.589 150.118C666.855 151.344 664.545 153.088 662.66 155.351C660.774 157.519 659.36 160.065 658.417 162.988C657.569 165.91 657.144 169.021 657.144 172.321C657.144 175.998 657.663 179.109 658.7 181.655C659.737 184.201 661.293 186.133 663.367 187.453C665.441 188.773 667.892 189.433 670.721 189.433C675.058 189.433 678.829 188.537 682.034 186.746C685.24 184.955 687.597 182.786 689.105 180.241C690.708 177.695 691.227 175.338 690.661 173.17L699.712 188.585C698.58 192.073 697.025 195.703 695.045 199.474C693.159 203.245 690.755 206.733 687.832 209.939C684.91 213.144 681.28 215.784 676.943 217.858C672.701 219.838 667.657 220.828 661.811 220.828C653.609 220.828 646.114 218.943 639.326 215.171C632.537 211.4 627.164 206.121 623.204 199.332C619.338 192.544 617.406 184.483 617.406 175.15C617.406 167.419 618.631 160.442 621.082 154.22C623.628 147.903 627.399 142.576 632.396 138.239C637.393 133.808 643.71 130.414 651.346 128.057C658.983 125.7 667.939 124.521 678.216 124.521H693.914ZM785.565 97.6518V218H745.826V64.9839H783.019L785.565 97.6518ZM779.625 136.259L769.019 136.542C768.83 125.04 769.914 114.716 772.271 105.571C774.722 96.4262 778.164 88.6481 782.595 82.2371C787.12 75.7318 792.494 70.7821 798.717 67.388C805.033 63.8997 812.057 62.1555 819.788 62.1555C825.728 62.1555 831.149 63.1926 836.051 65.2667C841.048 67.3409 845.338 70.6407 848.921 75.1661C852.503 79.6915 855.284 85.7254 857.264 93.2678C859.244 100.716 860.234 109.861 860.234 120.703V218H820.495V120.42C820.495 113.821 819.835 108.73 818.515 105.147C817.195 101.47 815.216 98.9246 812.576 97.5104C809.936 96.0019 806.636 95.2477 802.676 95.2477C798.905 95.2477 795.558 96.3319 792.636 98.5003C789.713 100.574 787.262 103.45 785.282 107.127C783.396 110.804 781.935 115.141 780.898 120.137C779.955 125.134 779.531 130.508 779.625 136.259ZM873.115 146.724V136.401C873.115 124.427 874.529 113.821 877.357 104.581C880.28 95.3419 884.428 87.611 889.802 81.3885C895.176 75.0718 901.634 70.3107 909.177 67.1052C916.813 63.8054 925.345 62.1555 934.773 62.1555C944.296 62.1555 952.828 63.8054 960.37 67.1052C968.007 70.3107 974.512 75.0718 979.886 81.3885C985.354 87.611 989.55 95.3419 992.473 104.581C995.395 113.821 996.857 124.427 996.857 136.401V146.724C996.857 158.604 995.395 169.163 992.473 178.402C989.55 187.642 985.354 195.42 979.886 201.737C974.512 208.053 968.054 212.814 960.512 216.02C952.969 219.225 944.484 220.828 935.056 220.828C925.628 220.828 917.096 219.225 909.459 216.02C901.917 212.814 895.412 208.053 889.943 201.737C884.475 195.42 880.28 187.642 877.357 178.402C874.529 169.163 873.115 158.604 873.115 146.724ZM912.712 136.401V146.724C912.712 153.795 913.183 159.923 914.126 165.109C915.163 170.294 916.625 174.584 918.51 177.978C920.49 181.372 922.847 183.871 925.581 185.473C928.315 187.076 931.474 187.877 935.056 187.877C938.639 187.877 941.844 187.076 944.673 185.473C947.501 183.871 949.811 181.372 951.602 177.978C953.488 174.584 954.855 170.294 955.704 165.109C956.646 159.923 957.118 153.795 957.118 146.724V136.401C957.118 129.518 956.599 123.484 955.562 118.299C954.525 113.019 953.064 108.73 951.178 105.43C949.293 102.036 946.936 99.4902 944.107 97.7932C941.373 96.0019 938.262 95.1062 934.773 95.1062C931.285 95.1062 928.174 96.0019 925.44 97.7932C922.8 99.4902 920.49 102.036 918.51 105.43C916.625 108.73 915.163 113.019 914.126 118.299C913.183 123.484 912.712 129.518 912.712 136.401ZM1078.18 176.705C1078.18 174.065 1077.29 171.708 1075.5 169.634C1073.71 167.56 1070.88 165.439 1067.01 163.27C1063.15 161.008 1058.01 158.509 1051.6 155.775C1044.62 152.947 1038.45 150.024 1033.07 147.007C1027.7 143.99 1023.12 140.643 1019.35 136.966C1015.68 133.289 1012.9 129.094 1011.01 124.38C1009.12 119.666 1008.18 114.292 1008.18 108.258C1008.18 101.753 1009.36 95.7662 1011.72 90.298C1014.17 84.7355 1017.66 79.8801 1022.18 75.7318C1026.71 71.4892 1032.22 68.1894 1038.73 65.8324C1045.33 63.3811 1052.73 62.1555 1060.93 62.1555C1072.43 62.1555 1082.29 64.1825 1090.49 68.2365C1098.78 72.1963 1105.15 77.7588 1109.58 84.924C1114.01 92.0893 1116.23 100.433 1116.23 109.955H1076.63C1076.63 106.561 1076.11 103.544 1075.07 100.904C1074.04 98.1703 1072.34 96.049 1069.98 94.5406C1067.72 93.0321 1064.65 92.2778 1060.79 92.2778C1057.96 92.2778 1055.42 92.8907 1053.15 94.1163C1050.98 95.3419 1049.24 96.9918 1047.92 99.066C1046.69 101.046 1046.08 103.403 1046.08 106.137C1046.08 108.211 1046.51 110.05 1047.35 111.652C1048.3 113.255 1049.76 114.811 1051.74 116.319C1053.72 117.828 1056.36 119.43 1059.66 121.127C1063.05 122.73 1067.2 124.521 1072.1 126.501C1082.29 130.273 1090.63 134.327 1097.13 138.663C1103.73 143 1108.64 148.091 1111.84 153.937C1115.05 159.688 1116.65 166.806 1116.65 175.291C1116.65 182.079 1115.33 188.255 1112.69 193.817C1110.14 199.38 1106.42 204.188 1101.52 208.242C1096.62 212.296 1090.72 215.407 1083.84 217.575C1077.05 219.744 1069.46 220.828 1061.07 220.828C1048.72 220.828 1038.3 218.377 1029.82 213.474C1021.33 208.572 1014.92 202.302 1010.59 194.666C1006.25 186.935 1004.08 178.921 1004.08 170.624H1041.7C1041.89 175.715 1042.83 179.722 1044.53 182.645C1046.32 185.473 1048.72 187.453 1051.74 188.585C1054.76 189.716 1058.1 190.282 1061.78 190.282C1065.46 190.282 1068.47 189.81 1070.83 188.867C1073.28 187.83 1075.12 186.275 1076.35 184.201C1077.57 182.032 1078.18 179.534 1078.18 176.705ZM1133.49 197.777C1133.49 191.554 1135.56 186.369 1139.71 182.221C1143.86 177.978 1149.47 175.857 1156.54 175.857C1163.61 175.857 1169.22 177.978 1173.37 182.221C1177.52 186.369 1179.59 191.554 1179.59 197.777C1179.59 203.999 1177.52 209.185 1173.37 213.333C1169.22 217.481 1163.61 219.555 1156.54 219.555C1149.47 219.555 1143.86 217.481 1139.71 213.333C1135.56 209.185 1133.49 203.999 1133.49 197.777Z" fill="white"/>
</svg>
